<svg version="1.0" xmlns="http://www.w3.org/2000/svg"  width="200.000000pt" height="100.000000pt" viewBox="10 15 426.000000 426.000000"  preserveAspectRatio="xMidYMid meet">  <g transform="translate(0.000000,432.000000) scale(0.100000,-0.100000)" fill="#000000" stroke="none"> <path d="M3115 3259 c-334 -43 -624 -255 -764 -561 -71 -153 -102 -346 -82 -500 32 -242 127 -435 292 -594 98 -93 228 -182 250 -169 5 4 9 72 9 153 l0 148 -61 59 c-182 178 -257 426 -199 660 52 207 180 369 365 460 308 152 671 60 870 -220 93 -132 131 -265 122 -434 -9 -179 -75 -327 -201 -451 l-66 -65 0 -157 c0 -87 4 -158 8 -158 18 0 161 96 218 146 77 67 161 176 213 276 192 366 128 815 -158 1111 -162 168 -358 267 -590 296 -95 12 -126 12 -226 0z"/> <path d="M905 3185 c-272 -45 -509 -197 -655 -422 -108 -164 -150 -297 -157 -494 -10 -244 47 -427 192 -624 206 -280 581 -431 920 -371 294 52 527 210 678 458 20 34 37 65 37 70 0 4 -72 8 -159 8 l-159 0 -32 -39 c-17 -22 -59 -61 -93 -87 -383 -291 -931 -120 -1081 336 -90 274 10 586 244 759 42 31 100 67 128 79 285 123 599 55 806 -175 l38 -43 154 0 c119 0 154 3 154 13 0 7 -20 46 -45 87 -148 239 -397 403 -680 446 -108 16 -183 16 -290 -1z"/> <path d="M1127 2349 c-28 -14 -44 -33 -59 -65 -21 -50 -19 -81 11 -131 39 -63 37 -63 530 -63 427 0 447 1 479 20 97 59 93 192 -8 242 -32 16 -76 18 -475 18 -422 -1 -442 -2 -478 -21z"/> <path d="M3179 2287 c-40 -18 -59 -37 -75 -75 -21 -50 -21 -883 0 -933 35 -85 140 -113 210 -58 56 44 56 40 56 526 0 429 -1 449 -20 481 -38 62 -109 87 -171 59z"/> </g> </svg> 
